# xmcd CD database file
#
# Track frame offsets:
#	150
#	18667
#	36142
#	58590
#	82250
#	98717
#	113022
#	131395
#	153327
#	174980
#	195575
#
# Disc length: 2838 seconds
#
# Revision: 2
# Processed by: cddbd v1.4PL0 Copyright (c) Steve Scherf et al.
# Submitted via: CDex 1.50
#
DISCID=860b140b
DTITLE=Brian Withycombe - The Best of Elton John
DYEAR=1998
DGENRE=New Age
TTITLE0=Your Song
TTITLE1=Daniel
TTITLE2=Dont Let the Sun Go Down on Me
TTITLE3=Tiny Dancer
TTITLE4=Blue Eyes
TTITLE5=Goodbye Yellow Brick Road
TTITLE6=Sorry Seems to be the Hardest Word
TTITLE7=I Guess That's Why they Call It the Blues
TTITLE8=Nikita
TTITLE9=Someone Saved My Life Tonight
TTITLE10=Lion King (Can You Feel the Love Tonight?)
EXTD=YEAR: 1998
EXTT0=
EXTT1=
EXTT2=
EXTT3=
EXTT4=
EXTT5=
EXTT6=
EXTT7=
EXTT8=
EXTT9=
EXTT10=
PLAYORDER=
